<svg width="156" height="35" viewBox="0 0 156 35" fill="none" xmlns="http://www.w3.org/2000/svg">
<path d="M38.7911 26.229C38.1465 26.229 37.6546 26.0509 37.3154 25.6947C36.9761 25.3385 36.8065 24.8381 36.8065 24.1935V10.0723C36.8065 9.41074 36.9761 8.91035 37.3154 8.5711C37.6716 8.23185 38.172 8.06223 38.8165 8.06223H44.9994C47.0009 8.06223 48.5445 8.5711 49.6301 9.58885C50.7157 10.5896 51.2585 11.989 51.2585 13.787C51.2585 15.5851 50.7157 16.9929 49.6301 18.0107C48.5445 19.0284 47.0009 19.5373 44.9994 19.5373H40.7503V24.1935C40.7503 24.8381 40.5806 25.3385 40.2414 25.6947C39.9191 26.0509 39.4357 26.229 38.7911 26.229ZM40.7503 16.4841H44.3378C45.3556 16.4841 46.1274 16.2551 46.6532 15.7971C47.196 15.3391 47.4674 14.6691 47.4674 13.787C47.4674 12.905 47.196 12.2435 46.6532 11.8024C46.1274 11.3614 45.3556 11.1409 44.3378 11.1409H40.7503V16.4841ZM57.3445 26.2426C56.5507 26.2426 55.8377 26.0882 55.2055 25.7795C54.5734 25.4708 54.0809 25.0518 53.7281 24.5226C53.3753 23.9933 53.1989 23.398 53.1989 22.7364C53.1989 21.9426 53.4047 21.3178 53.8163 20.8621C54.2279 20.3917 54.8968 20.0609 55.823 19.8698C56.7491 19.664 57.9766 19.5611 59.5055 19.5611H60.6742V21.2811H59.5276C58.7778 21.2811 58.1678 21.3252 57.6973 21.4134C57.2416 21.4869 56.9108 21.6192 56.705 21.8103C56.5139 22.0014 56.4184 22.266 56.4184 22.6041C56.4184 23.0157 56.558 23.3539 56.8373 23.6185C57.1313 23.8831 57.5503 24.0154 58.0942 24.0154C58.5206 24.0154 58.8954 23.9198 59.2189 23.7287C59.557 23.5229 59.8216 23.251 60.0127 22.9128C60.2038 22.56 60.2994 22.1631 60.2994 21.7221V19.1862C60.2994 18.5394 60.1524 18.0836 59.8583 17.819C59.5643 17.5397 59.0645 17.4 58.3589 17.4C57.9619 17.4 57.5283 17.4515 57.0578 17.5544C56.6021 17.6426 56.0949 17.797 55.5363 18.0175C55.2129 18.1645 54.9262 18.2012 54.6763 18.1277C54.4264 18.0395 54.2353 17.8925 54.103 17.6867C53.9707 17.4662 53.9045 17.231 53.9045 16.9811C53.9045 16.7165 53.978 16.4665 54.125 16.2313C54.272 15.9814 54.5146 15.7977 54.8527 15.6801C55.5437 15.4007 56.1905 15.2096 56.7932 15.1067C57.4107 15.0038 57.9766 14.9524 58.4912 14.9524C59.6231 14.9524 60.5493 15.1214 61.2696 15.4595C62.0047 15.783 62.5559 16.2901 62.9235 16.9811C63.291 17.6573 63.4747 18.532 63.4747 19.6052V24.5005C63.4747 25.0444 63.3424 25.4634 63.0778 25.7574C62.8132 26.0515 62.431 26.1985 61.9311 26.1985C61.4313 26.1985 61.0418 26.0515 60.7624 25.7574C60.4978 25.4634 60.3655 25.0444 60.3655 24.5005V23.6846L60.5199 23.8169C60.4317 24.3168 60.2406 24.7504 59.9465 25.118C59.6672 25.4708 59.3071 25.7501 58.866 25.9559C58.425 26.147 57.9178 26.2426 57.3445 26.2426ZM69.2468 30.1677C68.8646 30.1677 68.5485 30.0648 68.2986 29.859C68.0487 29.6531 67.9017 29.3812 67.8576 29.0431C67.8135 28.7196 67.8723 28.3742 68.034 28.0067L69.5114 24.7431V26.1103L65.6084 17.1575C65.4613 16.7753 65.4099 16.4224 65.454 16.099C65.5128 15.7609 65.6745 15.4963 65.9391 15.3052C66.2184 15.0994 66.6007 14.9965 67.0858 14.9965C67.4827 14.9965 67.7988 15.092 68.034 15.2831C68.2839 15.4595 68.5118 15.805 68.7176 16.3195L71.3196 22.9349H70.614L73.3042 16.2975C73.51 15.7977 73.7379 15.4595 73.9878 15.2831C74.2524 15.092 74.6052 14.9965 75.0463 14.9965C75.4285 14.9965 75.7298 15.0994 75.9503 15.3052C76.1856 15.4963 76.3252 15.7536 76.3693 16.077C76.4281 16.4004 76.3693 16.7532 76.1929 17.1354L71.0109 28.8887C70.7904 29.3885 70.5405 29.7266 70.2611 29.9031C69.9965 30.0795 69.6584 30.1677 69.2468 30.1677ZM84.3343 26.2426C83.7168 26.2426 83.0847 26.1911 82.4379 26.0882C81.8057 26 81.1957 25.8677 80.6076 25.6913C80.0343 25.5149 79.5198 25.2944 79.064 25.0297C78.7406 24.8533 78.5128 24.6255 78.3805 24.3462C78.2481 24.0521 78.1967 23.7581 78.2261 23.4641C78.2702 23.1701 78.3805 22.9128 78.5569 22.6923C78.748 22.4571 78.9832 22.3101 79.2625 22.2513C79.5565 22.1778 79.8799 22.2293 80.2328 22.4057C80.8355 22.7438 81.4897 22.9937 82.1953 23.1554C82.9156 23.3171 83.6286 23.398 84.3343 23.398C85.4074 23.398 86.1719 23.2363 86.6276 22.9128C87.0833 22.5747 87.3112 22.1557 87.3112 21.6559C87.3112 21.2296 87.1495 20.8915 86.826 20.6416C86.5026 20.3917 85.9367 20.1785 85.1281 20.0021L82.6363 19.4729C81.2251 19.1788 80.1739 18.679 79.483 17.9734C78.8068 17.253 78.4687 16.3122 78.4687 15.1508C78.4687 14.4158 78.623 13.7469 78.9317 13.1442C79.2404 12.5414 79.6741 12.0196 80.2328 11.5785C80.7914 11.1375 81.4529 10.7994 82.2174 10.5642C82.9965 10.329 83.8491 10.2114 84.7753 10.2114C85.5985 10.2114 86.4071 10.3143 87.2009 10.5201C87.9948 10.7112 88.693 10.9979 89.2958 11.3801C89.5898 11.5565 89.7883 11.7843 89.8912 12.0637C90.0088 12.3283 90.0455 12.6002 90.0014 12.8796C89.972 13.1442 89.8618 13.3794 89.6706 13.5852C89.4942 13.791 89.2664 13.9233 88.9871 13.9821C88.7077 14.0409 88.3696 13.9748 87.9727 13.7837C87.4876 13.5337 86.9731 13.35 86.4291 13.2324C85.8852 13.1148 85.3266 13.056 84.7532 13.056C84.1358 13.056 83.6066 13.1368 83.1656 13.2985C82.7392 13.4602 82.4085 13.6881 82.1733 13.9821C81.9527 14.2761 81.8425 14.6142 81.8425 14.9965C81.8425 15.4228 81.9968 15.7683 82.3056 16.0329C82.6143 16.2975 83.1509 16.5106 83.9153 16.6724L86.4071 17.2016C87.8478 17.5103 88.9209 18.0101 89.6265 18.7011C90.3322 19.3773 90.685 20.274 90.685 21.3913C90.685 22.1263 90.538 22.7952 90.244 23.398C89.95 23.986 89.5236 24.4932 88.965 24.9195C88.4064 25.3458 87.7375 25.6766 86.9584 25.9118C86.1792 26.1323 85.3045 26.2426 84.3343 26.2426ZM98.2218 26.2426C97.2075 26.2426 96.3549 26.0735 95.6639 25.7354C94.9877 25.3973 94.4805 24.9048 94.1424 24.258C93.819 23.6111 93.6573 22.7952 93.6573 21.8103V17.6647H92.7311C92.3195 17.6647 91.9961 17.5544 91.7609 17.3339C91.5403 17.1134 91.4301 16.812 91.4301 16.4298C91.4301 16.0182 91.5403 15.7095 91.7609 15.5036C91.9961 15.2831 92.3195 15.1729 92.7311 15.1729H93.6573V13.497C93.6573 12.9384 93.8043 12.5194 94.0983 12.2401C94.3923 11.9461 94.8039 11.7991 95.3331 11.7991C95.8771 11.7991 96.2887 11.9461 96.568 12.2401C96.8473 12.5194 96.987 12.9384 96.987 13.497V15.1729H99.0818C99.4935 15.1729 99.8095 15.2831 100.03 15.5036C100.251 15.7095 100.361 16.0182 100.361 16.4298C100.361 16.812 100.251 17.1134 100.03 17.3339C99.8095 17.5544 99.4935 17.6647 99.0818 17.6647H96.987V21.678C96.987 22.2954 97.1266 22.7585 97.406 23.0672C97.7 23.3759 98.163 23.5303 98.7952 23.5303C99.0157 23.5303 99.2215 23.5082 99.4126 23.4641C99.6037 23.42 99.7801 23.3906 99.9418 23.3759C100.148 23.3612 100.317 23.4274 100.449 23.5744C100.581 23.7067 100.647 24.008 100.647 24.4785C100.647 24.8313 100.589 25.14 100.471 25.4046C100.353 25.6692 100.148 25.8603 99.8536 25.9779C99.6625 26.0515 99.3979 26.1103 99.0598 26.1544C98.7364 26.2132 98.4571 26.2426 98.2218 26.2426ZM103.984 26.1985C103.425 26.1985 102.999 26.0515 102.705 25.7574C102.411 25.4634 102.264 25.0444 102.264 24.5005V16.6724C102.264 16.1284 102.403 15.7168 102.683 15.4375C102.977 15.1435 103.381 14.9965 103.896 14.9965C104.425 14.9965 104.829 15.1435 105.108 15.4375C105.388 15.7168 105.527 16.1284 105.527 16.6724V17.819H105.307C105.483 16.937 105.873 16.2534 106.476 15.7683C107.078 15.2831 107.857 15.0112 108.813 14.9524C109.18 14.923 109.46 15.0185 109.651 15.239C109.857 15.4448 109.967 15.7903 109.982 16.2754C110.011 16.7312 109.916 17.0913 109.695 17.3559C109.489 17.6206 109.136 17.7823 108.637 17.8411L108.129 17.8852C107.291 17.9587 106.667 18.2012 106.255 18.6129C105.858 19.0245 105.66 19.6199 105.66 20.399V24.5005C105.66 25.0444 105.513 25.4634 105.219 25.7574C104.939 26.0515 104.528 26.1985 103.984 26.1985ZM117.222 26.2426C115.943 26.2426 114.84 26.0147 113.914 25.559C113.002 25.0886 112.297 24.4344 111.797 23.5964C111.312 22.7438 111.069 21.7441 111.069 20.5975C111.069 19.4802 111.304 18.5026 111.775 17.6647C112.245 16.812 112.899 16.1505 113.737 15.6801C114.59 15.1949 115.553 14.9524 116.626 14.9524C117.405 14.9524 118.111 15.0847 118.743 15.3493C119.375 15.5992 119.919 15.9667 120.375 16.4518C120.831 16.9223 121.176 17.503 121.411 18.1939C121.646 18.8701 121.764 19.6272 121.764 20.4652C121.764 20.7445 121.676 20.9576 121.499 21.1046C121.323 21.2369 121.066 21.3031 120.728 21.3031H113.804V19.5831H119.36L119.008 19.8918C119.008 19.2891 118.919 18.7893 118.743 18.3923C118.567 17.9807 118.309 17.672 117.971 17.4662C117.648 17.2604 117.244 17.1575 116.758 17.1575C116.215 17.1575 115.751 17.2824 115.369 17.5324C114.987 17.7823 114.693 18.1424 114.487 18.6129C114.281 19.0833 114.178 19.6493 114.178 20.3108V20.4872C114.178 21.6045 114.436 22.4277 114.95 22.9569C115.479 23.4862 116.259 23.7508 117.288 23.7508C117.64 23.7508 118.045 23.7067 118.5 23.6185C118.956 23.5303 119.383 23.3906 119.779 23.1995C120.118 23.0378 120.419 22.9863 120.684 23.0451C120.948 23.0892 121.154 23.2069 121.301 23.398C121.448 23.5891 121.529 23.8096 121.544 24.0595C121.573 24.3094 121.521 24.5593 121.389 24.8092C121.257 25.0444 121.036 25.2429 120.728 25.4046C120.228 25.6839 119.662 25.8897 119.03 26.0221C118.412 26.1691 117.81 26.2426 117.222 26.2426ZM127.802 26.2426C127.008 26.2426 126.295 26.0882 125.663 25.7795C125.031 25.4708 124.539 25.0518 124.186 24.5226C123.833 23.9933 123.657 23.398 123.657 22.7364C123.657 21.9426 123.862 21.3178 124.274 20.8621C124.686 20.3917 125.355 20.0609 126.281 19.8698C127.207 19.664 128.434 19.5611 129.963 19.5611H131.132V21.2811H129.985C129.236 21.2811 128.626 21.3252 128.155 21.4134C127.699 21.4869 127.369 21.6192 127.163 21.8103C126.972 22.0014 126.876 22.266 126.876 22.6041C126.876 23.0157 127.016 23.3539 127.295 23.6185C127.589 23.8831 128.008 24.0154 128.552 24.0154C128.978 24.0154 129.353 23.9198 129.677 23.7287C130.015 23.5229 130.279 23.251 130.47 22.9128C130.662 22.56 130.757 22.1631 130.757 21.7221V19.1862C130.757 18.5394 130.61 18.0836 130.316 17.819C130.022 17.5397 129.522 17.4 128.817 17.4C128.42 17.4 127.986 17.4515 127.516 17.5544C127.06 17.6426 126.553 17.797 125.994 18.0175C125.671 18.1645 125.384 18.2012 125.134 18.1277C124.884 18.0395 124.693 17.8925 124.561 17.6867C124.428 17.4662 124.362 17.231 124.362 16.9811C124.362 16.7165 124.436 16.4665 124.583 16.2313C124.73 15.9814 124.972 15.7977 125.31 15.6801C126.001 15.4007 126.648 15.2096 127.251 15.1067C127.868 15.0038 128.434 14.9524 128.949 14.9524C130.081 14.9524 131.007 15.1214 131.727 15.4595C132.462 15.783 133.014 16.2901 133.381 16.9811C133.749 17.6573 133.933 18.532 133.933 19.6052V24.5005C133.933 25.0444 133.8 25.4634 133.536 25.7574C133.271 26.0515 132.889 26.1985 132.389 26.1985C131.889 26.1985 131.5 26.0515 131.22 25.7574C130.956 25.4634 130.823 25.0444 130.823 24.5005V23.6846L130.978 23.8169C130.889 24.3168 130.698 24.7504 130.404 25.118C130.125 25.4708 129.765 25.7501 129.324 25.9559C128.883 26.147 128.376 26.2426 127.802 26.2426ZM138.577 26.1985C138.033 26.1985 137.614 26.0515 137.32 25.7574C137.041 25.4634 136.901 25.0444 136.901 24.5005V16.6724C136.901 16.1284 137.041 15.7168 137.32 15.4375C137.614 15.1435 138.019 14.9965 138.533 14.9965C139.062 14.9965 139.467 15.1435 139.746 15.4375C140.025 15.7168 140.165 16.1284 140.165 16.6724V18.0836L139.922 17.2016C140.217 16.5253 140.672 15.9814 141.29 15.5698C141.907 15.1582 142.635 14.9524 143.473 14.9524C144.311 14.9524 145.009 15.1508 145.568 15.5477C146.126 15.9447 146.523 16.5548 146.758 17.378H146.45C146.773 16.6283 147.266 16.0402 147.927 15.6139C148.603 15.1729 149.375 14.9524 150.242 14.9524C151.08 14.9524 151.764 15.1214 152.293 15.4595C152.837 15.783 153.241 16.2828 153.506 16.959C153.771 17.6206 153.903 18.4659 153.903 19.4949V24.5005C153.903 25.0444 153.756 25.4634 153.462 25.7574C153.183 26.0515 152.778 26.1985 152.249 26.1985C151.705 26.1985 151.286 26.0515 150.992 25.7574C150.713 25.4634 150.573 25.0444 150.573 24.5005V19.6052C150.573 18.8848 150.456 18.3629 150.22 18.0395C150 17.7014 149.618 17.5324 149.074 17.5324C148.442 17.5324 147.949 17.7529 147.596 18.1939C147.243 18.6349 147.067 19.2597 147.067 20.0682V24.5005C147.067 25.0444 146.92 25.4634 146.626 25.7574C146.347 26.0515 145.942 26.1985 145.413 26.1985C144.884 26.1985 144.472 26.0515 144.178 25.7574C143.884 25.4634 143.737 25.0444 143.737 24.5005V19.6052C143.737 18.8848 143.62 18.3629 143.385 18.0395C143.164 17.7014 142.782 17.5324 142.238 17.5324C141.606 17.5324 141.113 17.7529 140.76 18.1939C140.408 18.6349 140.231 19.2597 140.231 20.0682V24.5005C140.231 25.6325 139.68 26.1985 138.577 26.1985Z" fill="#3E30BF"/>
<path d="M26.9996 10.2874C26.9996 12.7835 25.9886 15.0433 24.3525 16.6794C22.7164 18.3155 20.4566 19.3279 17.9604 19.3279H12.9734C10.4785 19.3279 8.22008 20.3389 6.58534 21.9736C4.95059 23.6084 3.93956 25.8668 3.93956 28.3617V19.3279C3.93956 16.8303 4.95059 14.5705 6.58667 12.9345C8.22275 11.2984 10.4825 10.2874 12.9787 10.2874H26.9996Z" fill="#3E30BF"/>
<path d="M27 10.2881C27 12.7843 25.989 15.0441 24.3529 16.6802C24.1873 16.8458 24.015 17.006 23.836 17.1583C25.3639 15.5396 26.2988 13.3572 26.2988 10.9559H12.2779C10.0355 10.9559 7.98407 11.7719 6.40408 13.1248C6.46285 13.0607 6.52429 12.998 6.58706 12.9352C8.22314 11.2991 10.4829 10.2881 12.9791 10.2881H27Z" fill="#B0A8FF"/>
<path d="M27 9.04185H9.03918C8.64652 9.04185 8.26054 9.01514 7.88123 8.96839C5.84849 8.70796 4.02543 7.77172 2.64711 6.3934C1.01103 4.75732 0 2.49753 0 0H17.9608C20.457 0 22.7168 1.01237 24.3529 2.64845C24.9098 3.20538 25.3946 3.83444 25.7913 4.52092C26.5606 5.85116 27 7.39522 27 9.04185Z" fill="#00B5E8"/>
<path d="M27 9.04185H9.03918C8.64652 9.04185 8.26054 9.01514 7.88123 8.96839C5.84849 8.70796 4.02543 7.77172 2.64711 6.3934C1.01103 4.75732 0 2.49753 0 0H17.9608C20.457 0 22.7168 1.01237 24.3529 2.64845C24.9098 3.20538 25.3946 3.83444 25.7913 4.52092C26.5606 5.85116 27 7.39522 27 9.04185Z" fill="#3E30BF"/>
<path d="M27 9.04185H26.3629C26.2668 7.62747 25.8474 6.30125 25.1743 5.13796C24.7776 4.45147 24.2928 3.82242 23.7359 3.26548C22.0998 1.6294 19.84 0.617036 17.3438 0.617036H0.0213697C0.00667837 0.414029 0 0.207014 0 0H17.9608C20.457 0 22.7168 1.01237 24.3529 2.64845C24.9098 3.20538 25.3946 3.83444 25.7913 4.52092C26.5606 5.85116 27 7.39522 27 9.04185Z" fill="#B0A8FF"/>
<path d="M12.9787 19.3278V24.3081C12.9787 24.4083 12.9774 24.5085 12.9734 24.6073C12.9307 25.9536 12.5914 27.2264 12.0211 28.3616C11.5844 29.2311 11.0128 30.019 10.3316 30.7002C8.69554 32.3363 6.43575 33.3486 3.93956 33.3486V28.3616C3.93956 25.8667 4.95059 23.6083 6.58534 21.9735C8.22008 20.3388 10.4785 19.3278 12.9734 19.3278H12.9787Z" fill="#3E30BF"/>
<path opacity="0.5" d="M12.9791 19.3286V20.6308H12.9738C10.4789 20.6308 8.22046 21.6418 6.58572 23.2766C4.95097 24.9113 3.93994 27.1698 3.93994 29.6646V28.3624C3.93994 25.8676 4.95097 23.6091 6.58572 21.9744C8.22046 20.3396 10.4789 19.3286 12.9738 19.3286H12.9791Z" fill="#1F1E21"/>
<path d="M12.9667 9.03467H12.9012V9.04135H12.9667V9.03467Z" fill="#00B5E8"/>
</svg>
