<svg width="27" height="34" viewBox="0 0 27 34" fill="none" xmlns="http://www.w3.org/2000/svg">
<path d="M26.9996 10.2874C26.9996 12.7835 25.9886 15.0433 24.3525 16.6794C22.7164 18.3155 20.4566 19.3279 17.9604 19.3279H12.9734C10.4785 19.3279 8.22008 20.3389 6.58534 21.9736C4.95059 23.6084 3.93956 25.8668 3.93956 28.3617V19.3279C3.93956 16.8303 4.95059 14.5705 6.58667 12.9345C8.22275 11.2984 10.4825 10.2874 12.9787 10.2874H26.9996Z" fill="#3E30BF"/>
<path d="M27 10.2881C27 12.7843 25.989 15.0441 24.3529 16.6802C24.1873 16.8458 24.015 17.006 23.836 17.1583C25.3639 15.5396 26.2988 13.3572 26.2988 10.9559H12.2779C10.0355 10.9559 7.98407 11.7719 6.40408 13.1248C6.46285 13.0607 6.52429 12.998 6.58706 12.9352C8.22314 11.2991 10.4829 10.2881 12.9791 10.2881H27Z" fill="#B0A8FF"/>
<path d="M27 9.04185H9.03918C8.64652 9.04185 8.26054 9.01514 7.88123 8.96839C5.84849 8.70796 4.02543 7.77172 2.64711 6.3934C1.01103 4.75732 0 2.49753 0 0H17.9608C20.457 0 22.7168 1.01237 24.3529 2.64845C24.9098 3.20538 25.3946 3.83444 25.7913 4.52092C26.5606 5.85116 27 7.39522 27 9.04185Z" fill="#00B5E8"/>
<path d="M27 9.04185H9.03918C8.64652 9.04185 8.26054 9.01514 7.88123 8.96839C5.84849 8.70796 4.02543 7.77172 2.64711 6.3934C1.01103 4.75732 0 2.49753 0 0H17.9608C20.457 0 22.7168 1.01237 24.3529 2.64845C24.9098 3.20538 25.3946 3.83444 25.7913 4.52092C26.5606 5.85116 27 7.39522 27 9.04185Z" fill="#3E30BF"/>
<path d="M27 9.04185H26.3629C26.2668 7.62747 25.8474 6.30125 25.1743 5.13796C24.7776 4.45147 24.2928 3.82242 23.7359 3.26548C22.0998 1.6294 19.84 0.617036 17.3438 0.617036H0.0213697C0.00667837 0.414029 0 0.207014 0 0H17.9608C20.457 0 22.7168 1.01237 24.3529 2.64845C24.9098 3.20538 25.3946 3.83444 25.7913 4.52092C26.5606 5.85116 27 7.39522 27 9.04185Z" fill="#B0A8FF"/>
<path d="M12.9787 19.3278V24.3081C12.9787 24.4083 12.9774 24.5085 12.9734 24.6073C12.9307 25.9536 12.5914 27.2264 12.0211 28.3616C11.5844 29.2311 11.0128 30.019 10.3316 30.7002C8.69554 32.3363 6.43575 33.3486 3.93956 33.3486V28.3616C3.93956 25.8667 4.95059 23.6083 6.58534 21.9735C8.22008 20.3388 10.4785 19.3278 12.9734 19.3278H12.9787Z" fill="#3E30BF"/>
<path opacity="0.5" d="M12.9791 19.3286V20.6308H12.9738C10.4789 20.6308 8.22046 21.6418 6.58572 23.2766C4.95097 24.9113 3.93994 27.1698 3.93994 29.6646V28.3624C3.93994 25.8676 4.95097 23.6091 6.58572 21.9744C8.22046 20.3396 10.4789 19.3286 12.9738 19.3286H12.9791Z" fill="#1F1E21"/>
<path d="M12.9667 9.03467H12.9012V9.04135H12.9667V9.03467Z" fill="#00B5E8"/>
</svg>
